<svg width="24" height="24" viewBox="0 0 24 24" fill="none" xmlns="http://www.w3.org/2000/svg">
<path d="M18.1102 12.4898V2.53977C18.1102 2.33462 18.0294 2.13772 17.8853 1.99173C17.7411 1.84573 17.5453 1.7624 17.3402 1.75977H7.12016C7.0182 1.75976 6.91725 1.78 6.82317 1.81932C6.72909 1.85864 6.64376 1.91625 6.57212 1.98882C6.50049 2.06138 6.44398 2.14745 6.40588 2.24203C6.36778 2.33661 6.34884 2.43781 6.35016 2.53977V12.5398C6.35016 12.5398 6.35016 12.5398 6.35016 12.6098C6.43761 14.1073 7.09415 15.5149 8.18539 16.5442C9.27662 17.5736 10.72 18.147 12.2202 18.147C13.7203 18.147 15.1637 17.5736 16.2549 16.5442C17.3462 15.5149 18.0027 14.1073 18.0902 12.6098C18.0902 12.6098 18.1102 12.5198 18.1102 12.4898Z" fill="#456DBB"/>
<path d="M16.2802 20.6596C15.8162 20.0232 15.2084 19.5054 14.5063 19.1485C13.8042 18.7915 13.0278 18.6055 12.2402 18.6055C11.4526 18.6055 10.6762 18.7915 9.97409 19.1485C9.27204 19.5054 8.66423 20.0232 8.2002 20.6596V21.4696C8.2002 21.6685 8.27921 21.8592 8.41987 21.9999C8.56052 22.1405 8.75128 22.2196 8.9502 22.2196H15.5702C15.7674 22.2169 15.9556 22.1367 16.0941 21.9964C16.2326 21.856 16.3102 21.6667 16.3102 21.4696V20.6596H16.2802Z" fill="#456DBB"/>
<path d="M4.54016 16.59L4.41016 16.39C3.68275 15.1051 3.2939 13.6564 3.28016 12.18C3.27524 12.1402 3.27524 12.0998 3.28016 12.06C3.38707 10.7403 3.70792 9.44671 4.23016 8.23C4.38016 7.9 4.29016 7.57 4.04016 7.5H3.78016C3.15332 7.49999 2.55201 7.74832 2.10784 8.19062C1.66366 8.63292 1.4128 9.23317 1.41016 9.86C1.45954 10.2316 1.58437 10.5891 1.77697 10.9107C1.96957 11.2323 2.22588 11.5111 2.53016 11.73C2.5964 11.7701 2.65117 11.8266 2.68919 11.894C2.72721 11.9615 2.74719 12.0376 2.74719 12.115C2.74719 12.1924 2.72721 12.2685 2.68919 12.336C2.65117 12.4034 2.5964 12.4599 2.53016 12.5C2.23429 12.7192 1.98601 12.9962 1.80037 13.3142C1.61472 13.6322 1.49558 13.9846 1.45016 14.35C1.45016 14.9786 1.69985 15.5814 2.14431 16.0258C2.58877 16.4703 3.19159 16.72 3.82016 16.72H3.88016C3.95016 16.72 3.88016 16.94 3.62016 17.24C3.39491 17.5889 3.27352 17.9947 3.27016 18.41C3.27016 18.7212 3.33146 19.0294 3.45056 19.317C3.56967 19.6045 3.74424 19.8658 3.96431 20.0858C4.18439 20.3059 4.44566 20.4805 4.7332 20.5996C5.02074 20.7187 5.32892 20.78 5.64016 20.78C6.21082 20.7422 6.75109 20.5092 7.17016 20.12C7.23475 20.0685 7.28691 20.0031 7.32276 19.9286C7.35861 19.8542 7.37723 19.7726 7.37723 19.69C7.37723 19.6074 7.35861 19.5258 7.32276 19.4514C7.28691 19.3769 7.23475 19.3115 7.17016 19.26C6.16519 18.5062 5.2787 17.6062 4.54016 16.59Z" fill="#456DBB"/>
<path d="M21.92 12.5002C21.8538 12.4602 21.799 12.4037 21.761 12.3362C21.723 12.2688 21.703 12.1927 21.703 12.1152C21.703 12.0378 21.723 11.9617 21.761 11.8943C21.799 11.8268 21.8538 11.7703 21.92 11.7302C22.2243 11.5113 22.4806 11.2325 22.6732 10.9109C22.8658 10.5894 22.9907 10.2318 23.04 9.86023C23.04 9.23167 22.7903 8.62885 22.3459 8.18439C21.9014 7.73993 21.2986 7.49023 20.67 7.49023H20.42C20.17 7.56023 20.08 7.89023 20.22 8.22023C20.7612 9.43341 21.099 10.7274 21.22 12.0502C21.22 12.0502 21.22 12.1302 21.22 12.1702C21.2015 13.646 20.813 15.0935 20.09 16.3802L19.96 16.5802C19.2367 17.5928 18.3673 18.4926 17.38 19.2502C17.3123 19.2979 17.2562 19.3602 17.2159 19.4326C17.1756 19.505 17.1522 19.5855 17.1474 19.6682C17.1426 19.7508 17.1565 19.8335 17.1882 19.9101C17.2198 19.9866 17.2683 20.0551 17.33 20.1102C17.7491 20.4994 18.2894 20.7325 18.86 20.7702C19.1713 20.7702 19.4795 20.7089 19.767 20.5898C20.0545 20.4707 20.3158 20.2962 20.5359 20.0761C20.756 19.856 20.9305 19.5947 21.0496 19.3072C21.1687 19.0197 21.23 18.7115 21.23 18.4002C21.226 17.9836 21.1009 17.5771 20.87 17.2302C20.66 16.9302 20.55 16.7002 20.61 16.7102H20.68C21.2982 16.6972 21.8867 16.4431 22.3202 16.0022C22.7536 15.5613 22.9976 14.9685 23 14.3502C22.9546 13.9848 22.8355 13.6324 22.6498 13.3144C22.4642 12.9964 22.2159 12.7194 21.92 12.5002Z" fill="#456DBB"/>
</svg>
