<svg width="24" height="25" viewBox="0 0 24 25" fill="none" xmlns="http://www.w3.org/2000/svg">
<path d="M16.5 3.5C19.5376 3.5 22 6 22 9.5C22 16.5 14.5 20.5 12 22C9.5 20.5 2 16.5 2 9.5C2 6 4.5 3.5 7.5 3.5C9.35997 3.5 11 4.5 12 5.5C13 4.5 14.64 3.5 16.5 3.5ZM12.9339 19.1038C13.8155 18.5485 14.61 17.9955 15.3549 17.4029C18.3337 15.033 20 12.4435 20 9.5C20 7.14076 18.463 5.5 16.5 5.5C15.4241 5.5 14.2593 6.06911 13.4142 6.91421L12 8.32843L10.5858 6.91421C9.74068 6.06911 8.5759 5.5 7.5 5.5C5.55906 5.5 4 7.1565 4 9.5C4 12.4435 5.66627 15.033 8.64514 17.4029C9.39 17.9955 10.1845 18.5485 11.0661 19.1038C11.3646 19.2919 11.6611 19.4729 12 19.6752C12.3389 19.4729 12.6354 19.2919 12.9339 19.1038Z" fill="#456DBB"/>
</svg>
