<svg width="150" height="23" viewBox="0 0 150 23" fill="none" xmlns="http://www.w3.org/2000/svg">
<g clip-path="url(#clip0_578_2915)">
<g opacity="0.4">
<path d="M11.1075 17.6602C10.6184 17.6602 10.3738 17.2967 10.5267 16.8423L12.7583 10.6929C12.9112 10.2385 13.4309 9.875 13.92 9.875H26.5761C27.0653 9.875 27.3098 10.2385 27.157 10.6929L24.9253 16.8423C24.7725 17.2967 24.2528 17.6602 23.7637 17.6602H11.1075Z" fill="url(#paint0_linear_578_2915)"/>
</g>
<path opacity="0.5" d="M18.5676 12.7827C18.5676 12.7827 11.2307 14.9335 10.6193 16.7208C10.0079 18.508 12.0255 12.7827 12.0255 12.7827H18.5676Z" fill="url(#paint1_linear_578_2915)"/>
<g opacity="0.9">
<path d="M5.94151 12.7828C5.45238 12.7828 5.20782 12.4192 5.36067 11.9649L7.62288 5.81546C7.77573 5.36107 8.29543 4.99756 8.78456 4.99756H21.4407C21.9298 4.99756 22.1744 5.36107 22.0215 5.81546L19.7593 11.9649C19.6065 12.4192 19.0868 12.7828 18.5976 12.7828H5.94151Z" fill="url(#paint2_linear_578_2915)"/>
</g>
<g opacity="0.76">
<path d="M1.11143 7.81496C0.622307 7.81496 0.377744 7.45145 0.530596 6.99706L2.7928 0.877959C2.94566 0.42357 3.46535 0.0600586 3.95448 0.0600586H16.6106C17.0997 0.0600586 17.3443 0.42357 17.1914 0.877959L14.9292 7.02736C14.7764 7.48175 14.2567 7.84526 13.7676 7.84526H1.11143V7.81496Z" fill="url(#paint3_linear_578_2915)"/>
</g>
<path opacity="0.76" d="M13.5845 7.81494C13.5845 7.81494 6.06422 10.0263 5.45282 11.8136C4.84141 13.6008 6.88962 7.81494 6.88962 7.81494H13.5845Z" fill="url(#paint4_linear_578_2915)"/>
<path d="M40.3331 17.4175C38.7434 17.4175 37.3372 16.8419 36.2061 15.7211C35.075 14.6003 34.4941 13.2371 34.4941 11.6316C34.4941 10.0564 35.075 8.66291 36.2061 7.54209C37.3372 6.42126 38.7129 5.8457 40.3331 5.8457C41.9227 5.8457 43.329 6.42126 44.4601 7.54209C44.6741 7.75414 44.7658 7.96619 44.7658 8.26911C44.7658 8.57204 44.6741 8.78409 44.4601 8.99613C44.2461 9.20818 44.0321 9.29906 43.7264 9.29906C43.4513 9.29906 43.2067 9.20818 42.9927 8.99613C42.259 8.26911 41.3725 7.9056 40.3331 7.9056C39.2937 7.9056 38.4071 8.26911 37.6735 8.99613C36.9398 9.72316 36.5729 10.6016 36.5729 11.6619C36.5729 12.6918 36.9398 13.5703 37.6735 14.2973C38.4071 15.0244 39.2937 15.3879 40.3331 15.3879C41.3725 15.3879 42.259 15.0244 42.9927 14.2973C43.2067 14.0853 43.4207 13.9944 43.7264 13.9944C44.0015 13.9944 44.2461 14.0853 44.4601 14.2973C44.6741 14.5094 44.7658 14.7214 44.7658 15.0244C44.7658 15.297 44.6741 15.5393 44.4601 15.7514C43.329 16.8419 41.9533 17.4175 40.3331 17.4175Z" fill="#333333"/>
<path d="M48.0374 17.4179C47.7623 17.4179 47.5177 17.3271 47.3038 17.115C47.0898 16.903 46.998 16.6909 46.998 16.388V6.90641C46.998 6.63378 47.0898 6.39144 47.3038 6.17939C47.5177 5.96734 47.7317 5.87646 48.0374 5.87646C48.3126 5.87646 48.5571 5.96734 48.7406 6.17939C48.9545 6.39144 49.0463 6.60349 49.0463 6.90641V15.4186H54.4266C54.7018 15.4186 54.9463 15.5095 55.1603 15.7216C55.3438 15.9336 55.466 16.1457 55.466 16.4183C55.466 16.6909 55.3743 16.9333 55.1603 17.1453C54.9463 17.3574 54.7323 17.4482 54.4266 17.4482H48.0374V17.4179Z" fill="#333333"/>
<path d="M58.5833 17.4179C58.3082 17.4179 58.0636 17.3271 57.8496 17.115C57.6357 16.903 57.5439 16.6909 57.5439 16.388V6.90641C57.5439 6.63378 57.6357 6.39144 57.8496 6.17939C58.0636 5.96734 58.2776 5.87646 58.5833 5.87646C58.8585 5.87646 59.103 5.96734 59.2865 6.17939C59.5004 6.39144 59.5922 6.60349 59.5922 6.90641V16.4183C59.5922 16.6909 59.5004 16.9333 59.2865 17.1453C59.103 17.3271 58.8585 17.4179 58.5833 17.4179Z" fill="#333333"/>
<path d="M67.8468 17.4175C66.2571 17.4175 64.8509 16.8419 63.7198 15.7211C62.5887 14.6003 62.0078 13.2371 62.0078 11.6316C62.0078 10.0564 62.5887 8.66291 63.7198 7.54209C64.8509 6.42126 66.2265 5.8457 67.8468 5.8457C69.467 5.8457 70.8427 6.42126 71.9738 7.54209C72.1877 7.75414 72.2795 7.96619 72.2795 8.26911C72.2795 8.57204 72.1877 8.78409 71.9738 8.99613C71.7598 9.20818 71.5458 9.29906 71.2401 9.29906C70.9649 9.29906 70.7204 9.20818 70.5064 8.99613C69.7727 8.26911 68.8861 7.9056 67.8468 7.9056C66.8074 7.9056 65.9208 8.26911 65.1871 8.99613C64.4534 9.72316 64.0866 10.6016 64.0866 11.6619C64.0866 12.6918 64.4534 13.5703 65.1871 14.2973C65.9208 15.0244 66.8074 15.3879 67.8468 15.3879C68.8861 15.3879 69.7727 15.0244 70.5064 14.2973C70.7204 14.0853 70.9344 13.9944 71.2401 13.9944C71.5152 13.9944 71.7598 14.0853 71.9738 14.2973C72.1877 14.5094 72.2795 14.7214 72.2795 15.0244C72.2795 15.297 72.1877 15.5393 71.9738 15.7514C70.8427 16.8419 69.467 17.4175 67.8468 17.4175Z" fill="#333333"/>
<path d="M83.5296 17.4179C83.1628 17.4179 82.8876 17.2665 82.6736 16.9636L79.7694 12.662H76.529V16.4183C76.529 16.6909 76.4373 16.9333 76.2233 17.1453C76.0093 17.3574 75.7953 17.4482 75.4896 17.4482C75.2145 17.4482 74.9699 17.3574 74.7559 17.1453C74.5419 16.9333 74.4502 16.7212 74.4502 16.4183V6.90641C74.4502 6.63378 74.5419 6.39144 74.7559 6.17939C74.9699 5.96734 75.1839 5.87646 75.4896 5.87646C75.7647 5.87646 76.0093 5.96734 76.1927 6.17939C76.4067 6.39144 76.4984 6.60349 76.4984 6.90641V10.6627H79.7389L82.6431 6.36115C82.7959 6.11881 83.0099 5.96734 83.285 5.93705C83.3462 5.93705 83.4073 5.90676 83.499 5.90676C83.713 5.90676 83.8964 5.96734 84.0799 6.08851C84.3244 6.23998 84.4467 6.45202 84.5078 6.72466C84.569 6.99729 84.5078 7.23963 84.355 7.48197L81.5425 11.6926L84.355 15.873C84.5078 16.1154 84.569 16.3577 84.5078 16.6303C84.4467 16.903 84.2939 17.115 84.0799 17.2665C83.927 17.3574 83.7436 17.4179 83.5296 17.4179Z" fill="#333333"/>
<path d="M91.8753 17.4175C91.6002 17.4175 91.3556 17.3266 91.1416 17.1145C90.9276 16.9025 90.8359 16.6905 90.8359 16.3875C90.8359 16.1149 90.9276 15.8726 91.1416 15.6605C91.3556 15.4485 91.5696 15.3576 91.8753 15.3576H97.4697C97.8366 15.3576 98.1728 15.2364 98.448 14.9638C98.7231 14.6911 98.8454 14.3579 98.8454 13.9944C98.8454 13.6309 98.6925 13.2977 98.448 13.025C98.1728 12.7524 97.8671 12.6312 97.4697 12.6312H94.2598C93.3121 12.6312 92.5173 12.298 91.8448 11.6316C91.1722 10.9652 90.8359 10.1775 90.8359 9.23847C90.8359 8.2994 91.1722 7.5118 91.8448 6.84536C92.5173 6.17892 93.3121 5.8457 94.2598 5.8457H99.8542C100.129 5.8457 100.374 5.93658 100.588 6.14863C100.802 6.36068 100.894 6.57273 100.894 6.87565C100.894 7.17858 100.802 7.39063 100.588 7.60267C100.374 7.81472 100.16 7.9056 99.8542 7.9056H94.2598C93.893 7.9056 93.5567 8.05706 93.2816 8.2994C93.0064 8.57204 92.8842 8.87496 92.8842 9.26877C92.8842 9.63228 93.0064 9.9655 93.2816 10.2381C93.5567 10.5108 93.8624 10.6319 94.2598 10.6319H97.4697C98.4174 10.6319 99.2122 10.9652 99.8848 11.6316C100.557 12.298 100.894 13.0856 100.894 14.0247C100.894 14.9638 100.557 15.7514 99.8848 16.4178C99.2122 17.0843 98.4174 17.4175 97.4697 17.4175H91.8753Z" fill="#333333"/>
<path d="M107.374 17.4175C107.099 17.4175 106.854 17.3266 106.641 17.1145C106.457 16.9328 106.335 16.6905 106.335 16.3875V7.9056H103.369C103.094 7.9056 102.85 7.81472 102.636 7.60267C102.422 7.39063 102.33 7.17858 102.33 6.87565C102.33 6.57273 102.422 6.36068 102.636 6.14863C102.85 5.93658 103.064 5.8457 103.369 5.8457H111.348C111.623 5.8457 111.868 5.93658 112.082 6.14863C112.296 6.36068 112.388 6.57273 112.388 6.87565C112.388 7.17858 112.296 7.39063 112.082 7.60267C111.868 7.81472 111.654 7.9056 111.348 7.9056H108.383V16.4178C108.383 16.6905 108.291 16.9328 108.077 17.1448C107.894 17.3266 107.649 17.4175 107.374 17.4175Z" fill="#333333"/>
<path d="M119.693 17.4175C118.104 17.4175 116.728 16.8419 115.566 15.7211C114.435 14.6003 113.854 13.2371 113.854 11.6316C113.854 10.0564 114.435 8.66291 115.566 7.54209C116.698 6.42126 118.073 5.8457 119.693 5.8457C121.283 5.8457 122.689 6.42126 123.82 7.54209C124.952 8.66291 125.532 10.0261 125.532 11.6316C125.532 13.2068 124.952 14.57 123.82 15.7211C122.659 16.8419 121.283 17.4175 119.693 17.4175ZM119.693 7.9056C118.654 7.9056 117.768 8.26911 117.034 9.02643C116.3 9.75345 115.933 10.6319 115.933 11.6619C115.933 12.6918 116.3 13.5703 117.034 14.2973C117.768 15.0244 118.654 15.3879 119.693 15.3879C120.733 15.3879 121.619 15.0244 122.384 14.2973C123.117 13.5703 123.484 12.6918 123.484 11.6619C123.484 10.6319 123.117 9.75345 122.384 9.02643C121.619 8.26911 120.702 7.9056 119.693 7.9056Z" fill="#333333"/>
<path d="M136.966 17.4179C136.691 17.4179 136.446 17.3271 136.232 17.115L133.328 14.2372H129.966V16.388C129.966 16.6606 129.874 16.903 129.66 17.115C129.446 17.3271 129.232 17.4179 128.926 17.4179C128.651 17.4179 128.406 17.3271 128.192 17.115C127.978 16.903 127.887 16.6909 127.887 16.388V6.90641C127.887 6.63378 127.978 6.39144 128.192 6.17939C128.406 5.96734 128.62 5.87646 128.926 5.87646H133.726C134.887 5.87646 135.866 6.27027 136.722 7.11846C137.547 7.93636 137.975 8.90572 137.975 10.0871C137.975 10.8142 137.792 11.5109 137.425 12.1167C137.088 12.7226 136.599 13.2376 135.988 13.6011L135.713 13.7828L137.669 15.6913C137.883 15.9033 137.975 16.1154 137.975 16.4183C137.975 16.6909 137.883 16.9333 137.669 17.1453C137.486 17.3271 137.241 17.4179 136.966 17.4179ZM129.996 12.2076H133.756C134.368 12.2076 134.887 11.9956 135.285 11.5715C135.713 11.1474 135.927 10.6324 135.927 10.0568C135.927 9.45099 135.713 8.93602 135.285 8.54221C134.857 8.11812 134.337 7.90607 133.756 7.90607H129.996V12.2076Z" fill="#333333"/>
<path d="M144.456 17.4179C144.181 17.4179 143.936 17.3271 143.722 17.115C143.508 16.903 143.416 16.6909 143.416 16.388V13.5102L139.595 7.42139C139.442 7.17905 139.412 6.93671 139.473 6.66407C139.534 6.39144 139.687 6.17939 139.931 6.02793C140.115 5.93705 140.268 5.87646 140.451 5.87646C140.543 5.87646 140.604 5.87646 140.696 5.90676C140.971 5.96734 141.185 6.11881 141.338 6.36115L144.486 11.3291L147.635 6.36115C147.788 6.11881 148.002 5.96734 148.277 5.90676C148.369 5.87646 148.43 5.87646 148.522 5.87646C148.705 5.87646 148.889 5.93705 149.041 6.02793C149.286 6.17939 149.439 6.39144 149.5 6.66407C149.561 6.93671 149.531 7.17905 149.378 7.42139L145.526 13.5102V16.388C145.526 16.6606 145.434 16.903 145.22 17.115C145.006 17.3271 144.762 17.4179 144.456 17.4179Z" fill="#333333"/>
</g>
<defs>
<linearGradient id="paint0_linear_578_2915" x1="28.3117" y1="13.7863" x2="9.53795" y2="13.7863" gradientUnits="userSpaceOnUse">
<stop stop-color="#B3FFC5"/>
<stop offset="1" stop-color="#97DDFA"/>
</linearGradient>
<linearGradient id="paint1_linear_578_2915" x1="19.0908" y1="14.9083" x2="10.0358" y2="14.9083" gradientUnits="userSpaceOnUse">
<stop offset="0.00534759" stop-color="#0048B6"/>
<stop offset="0.3572" stop-color="#377ECF"/>
<stop offset="1" stop-color="#97DDFA"/>
</linearGradient>
<linearGradient id="paint2_linear_578_2915" x1="23.1431" y1="8.89815" x2="4.36934" y2="8.89815" gradientUnits="userSpaceOnUse">
<stop stop-color="#A9FFCE"/>
<stop offset="1" stop-color="#97DDFA"/>
</linearGradient>
<linearGradient id="paint3_linear_578_2915" x1="4.20048" y1="-0.673477" x2="13.4342" y2="8.64487" gradientUnits="userSpaceOnUse">
<stop stop-color="#2C95FF"/>
<stop offset="0.0952693" stop-color="#369CFF"/>
<stop offset="1" stop-color="#97DDFA"/>
</linearGradient>
<linearGradient id="paint4_linear_578_2915" x1="14.1293" y1="9.98535" x2="4.8551" y2="9.98535" gradientUnits="userSpaceOnUse">
<stop offset="0.00534759" stop-color="#0048B6"/>
<stop offset="0.3572" stop-color="#377ECF"/>
<stop offset="1" stop-color="#97DDFA"/>
</linearGradient>
<clipPath id="clip0_578_2915">
<rect width="149" height="22" fill="white" transform="translate(0.5 0.5)"/>
</clipPath>
</defs>
</svg>
