<svg width="25" height="24" viewBox="0 0 25 24" fill="none" xmlns="http://www.w3.org/2000/svg">
<g clip-path="url(#clip0_997_6151)">
<path d="M10.9502 19.5584L13.6041 2.71124L20.9554 0L24.1705 5.98016L24.4998 8.69691L17.2765 22.5242L15 23.0081L11.4304 21.8508L10.9502 19.5584Z" fill="#0074B6"/>
<path d="M15.0002 23.008L21.7006 9.2854L16.0701 6.5918L11.4307 21.8508L15.0002 23.008Z" fill="#008AB6"/>
<path d="M16.0698 6.59203L11.4304 21.851L10.9502 19.5586L13.6041 2.71143L16.0698 6.59203Z" fill="#87E8FD"/>
<path d="M20.9558 0L16.0702 6.59184L13.6045 2.71124L16.9706 0.347171L20.9558 0Z" fill="#D4F9E4"/>
<path d="M16.0703 6.59184L21.7008 9.28545L24.5002 8.69691L20.9559 0L17.8305 2.49522L16.0703 6.59184Z" fill="#A9FFE5"/>
<path d="M20.9561 0L24.5004 8.69691L24.1712 5.98016L20.9561 0Z" fill="#0074B6"/>
<path d="M21.701 9.28545L20.9561 0L24.5004 8.69691L21.701 9.28545Z" fill="#87E8FD"/>
<path d="M2.52161 10.0801L0.5 14.4941L5.16348 21.9798L6.6217 22.7436L9.56331 22.791L10.3334 20.5801L8.98024 13.1484L6.08458 10.1374L2.52161 10.0801Z" fill="#0074B6"/>
<path d="M6.75 14.6595L8.98055 13.1484L10.6532 21.8387L9.56362 22.791L6.75 14.6595Z" fill="#87E8FD"/>
<path d="M3.9082 15.2901L6.75027 14.6597L9.56388 22.7912L6.62227 22.7438L3.9082 15.2901Z" fill="#008AB6"/>
<path d="M8.03125 20.1127L10.7267 17.1909L13.3434 19.3026L12.6335 22.9705L11.3426 23.9999L9.56386 22.7908L8.03125 20.1127Z" fill="#0074B6"/>
<path d="M0.5 14.4941L3.90763 15.2898L2.52161 10.0801L0.5 14.4941Z" fill="#87E8FD"/>
<path d="M3.90763 15.2899L6.6217 22.7436L5.16348 21.9798L0.5 14.4941L3.90763 15.2899Z" fill="#0074B6"/>
<path d="M3.90751 15.2898L6.74957 14.6594L5.38105 11.6087L2.52148 10.0801L3.90751 15.2898Z" fill="#A9FFE5"/>
<path d="M2.52148 10.0801L5.38105 11.6087L6.08445 10.1374L2.52148 10.0801Z" fill="#D4F9E4"/>
<path d="M5.38086 11.6086L6.08426 10.1372L8.97993 13.1482L6.74938 14.6593L5.38086 11.6086Z" fill="#92FAE1"/>
<path d="M8.03125 20.1127L10.0375 21.433L10.7267 17.1909L8.03125 20.1127Z" fill="#87E8FD"/>
<path d="M10.7266 17.1909L11.7614 21.3437L13.3433 19.3026L10.7266 17.1909Z" fill="#D4F9E4"/>
<path d="M10.7263 17.1909L10.0371 21.433L11.7612 21.3437L10.7263 17.1909Z" fill="#008AB6"/>
<path d="M10.0371 21.433L11.3422 23.9999L11.7612 21.3438L10.0371 21.433Z" fill="#0074B6"/>
<path d="M11.7608 21.3439L13.3426 19.3027L12.6326 22.9706L11.3418 24L11.7608 21.3439Z" fill="#008AB6"/>
<path d="M7.15623 15.0759C6.94838 15.2743 6.548 15.2721 6.30514 15.0032C6.05791 14.7386 6.11917 14.3705 6.33249 14.1777C6.54034 13.9793 6.96042 13.9705 7.20327 14.2394C7.4505 14.5039 7.36955 14.883 7.15623 15.077V15.0759Z" fill="#BCFED9"/>
<path d="M16.9706 0.347168L17.8304 2.49522L16.0702 6.59184L13.6045 2.71124L16.9706 0.347168Z" fill="#92FAE1"/>
<path d="M22.6912 12.1608L21.7012 9.28531L24.5006 8.69678L22.6912 12.1608Z" fill="#008AB6"/>
<path d="M22.1064 9.6633C21.8986 9.86168 21.4982 9.85948 21.2553 9.59056C21.0081 9.32605 21.0694 8.95793 21.2827 8.76506C21.4905 8.56668 21.9106 8.55786 22.1535 8.82678C22.4007 9.09129 22.3197 9.47042 22.1064 9.6644V9.6633Z" fill="#BCFED9"/>
</g>
<defs>
<clipPath id="clip0_997_6151">
<rect width="24" height="24" fill="white" transform="translate(0.5)"/>
</clipPath>
</defs>
</svg>
