<svg width="24" height="25" viewBox="0 0 24 25" fill="none" xmlns="http://www.w3.org/2000/svg">
<path d="M6 4.5H4V2.5H20V4.5H18V6.5C18 8.11543 17.1838 9.41468 16.1561 10.4767C15.4532 11.203 14.598 11.872 13.7309 12.5C14.598 13.128 15.4532 13.797 16.1561 14.5233C17.1838 15.5853 18 16.8846 18 18.5V20.5H20V22.5H4V20.5H6V18.5C6 16.8846 6.81616 15.5853 7.8439 14.5233C8.54682 13.797 9.40202 13.128 10.2691 12.5C9.40202 11.872 8.54682 11.203 7.8439 10.4767C6.81616 9.41468 6 8.11543 6 6.5V4.5ZM8 4.5V6.5C8 7.38457 8.43384 8.21032 9.2811 9.08583C10.008 9.83699 10.9548 10.5398 12 11.2781C13.0452 10.5398 13.992 9.83699 14.7189 9.08583C15.5662 8.21032 16 7.38457 16 6.5V4.5H8ZM12 13.7219C10.9548 14.4602 10.008 15.163 9.2811 15.9142C8.43384 16.7897 8 17.6154 8 18.5V20.5H16V18.5C16 17.6154 15.5662 16.7897 14.7189 15.9142C13.992 15.163 13.0452 14.4602 12 13.7219Z" fill="#456DBB"/>
</svg>
