<svg width="24" height="14" viewBox="0 0 24 14" fill="none" xmlns="http://www.w3.org/2000/svg">
<path d="M22.9566 10.8203C22.434 10.1931 21.8402 9.63089 21.2659 9.08721C21.0617 8.89385 20.8506 8.69395 20.6471 8.49517C20.0628 7.92388 20.0415 7.70924 20.5041 7.06033C20.8242 6.61303 21.1635 6.16514 21.4917 5.73198C21.7894 5.33898 22.0972 4.93257 22.3923 4.52484L22.4529 4.44101C23.0168 3.66077 23.5999 2.85396 23.9103 1.88069C23.9909 1.62391 24.0755 1.24604 23.882 0.930071C23.6887 0.614366 23.3136 0.51805 23.0482 0.473062C22.9169 0.450799 22.7866 0.447761 22.6656 0.447761L18.9728 0.445118L18.9422 0.444854C18.3839 0.444854 18.0076 0.707975 17.792 1.24934C17.5861 1.7666 17.36 2.31742 17.102 2.84115C16.5885 3.88405 15.9363 5.08524 14.9927 6.08705L14.9528 6.12966C14.8413 6.24943 14.7151 6.38505 14.6228 6.38505C14.6087 6.38505 14.5933 6.38234 14.5758 6.37686C14.3803 6.30069 14.2491 5.8275 14.2551 5.60738C14.2552 5.60435 14.2552 5.60131 14.2552 5.59827L14.2526 1.33007C14.2526 1.31527 14.2516 1.30061 14.2497 1.28594C14.1557 0.592104 13.9476 0.160197 13.1614 0.00620934C13.1405 0.0020475 13.1192 0 13.0979 0H9.25805C8.63245 0 8.28774 0.254269 7.96371 0.634846C7.87625 0.736579 7.69418 0.94837 7.78442 1.20528C7.87598 1.46602 8.17319 1.52178 8.26997 1.53988C8.75037 1.63131 9.02115 1.92515 9.09785 2.43857C9.23175 3.33013 9.2482 4.28174 9.14964 5.43338C9.12216 5.75344 9.06779 6.00064 8.97821 6.21184C8.9574 6.26112 8.88361 6.42198 8.80837 6.42205C8.78445 6.42205 8.71529 6.41267 8.58931 6.32586C8.29144 6.1218 8.07351 5.8306 7.81944 5.4709C6.9551 4.24937 6.22968 2.90371 5.60144 1.3561C5.36844 0.786389 4.9333 0.467447 4.37561 0.458066C3.76283 0.448752 3.20726 0.44426 2.67739 0.44426C2.09843 0.44426 1.56168 0.449611 1.03756 0.460511C0.58887 0.468438 0.278515 0.602938 0.115213 0.860576C-0.0483542 1.11841 -0.0377184 1.45711 0.146856 1.86708C1.62437 5.15183 2.96402 7.54013 4.49069 9.61127C5.56042 11.0605 6.63338 12.0637 7.867 12.7679C9.16668 13.5114 10.6232 13.8729 12.3196 13.8729C12.5119 13.8729 12.7108 13.8682 12.9113 13.8589C13.897 13.8108 14.2628 13.454 14.309 12.4942C14.331 12.0037 14.3846 11.4893 14.6258 11.0506C14.778 10.7742 14.9199 10.7742 14.9665 10.7742C15.0563 10.7742 15.1677 10.8156 15.2874 10.8931C15.5019 11.0331 15.6859 11.2207 15.8367 11.3846C15.9787 11.5403 16.1191 11.6976 16.2596 11.855C16.5628 12.1946 16.8763 12.5457 17.2039 12.8787C17.9207 13.6081 18.7105 13.9289 19.6176 13.8593H23.0033C23.0105 13.8593 23.0178 13.859 23.025 13.8585C23.3624 13.8363 23.6546 13.6491 23.8267 13.3451C24.0398 12.9685 24.0355 12.488 23.8152 12.0596C23.5651 11.5751 23.2408 11.1611 22.9566 10.8203Z" fill="#D0D0D0"/>
</svg>
